<svg width="21" height="21" viewBox="0 0 21 21" fill="none" xmlns="http://www.w3.org/2000/svg">
<g id="vuesax/linear/camera">
<g id="camera">
<path id="Vector" d="M5.8333 18.5971H14.5665C16.8665 18.5971 17.7832 17.1888 17.8915 15.4722L18.3248 8.58892C18.4415 6.78894 17.0082 5.26396 15.1999 5.26396C14.6915 5.26396 14.2249 4.9723 13.9915 4.5223L13.3915 3.31398C13.0082 2.55566 12.0082 1.93066 11.1582 1.93066H9.24993C8.3916 1.93066 7.39161 2.55566 7.00829 3.31398L6.40829 4.5223C6.17496 4.9723 5.7083 5.26396 5.19997 5.26396C3.39166 5.26396 1.95834 6.78894 2.07501 8.58892L2.50834 15.4722C2.60834 17.1888 3.53333 18.5971 5.8333 18.5971Z" stroke="#E6B014" stroke-width="1.24999" stroke-linecap="round" stroke-linejoin="round"/>
<path id="Vector_2" d="M8.9502 6.93066H11.4502" stroke="#E6B014" stroke-width="1.24999" stroke-linecap="round" stroke-linejoin="round"/>
<path id="Vector_3" d="M10.2005 15.2638C11.6921 15.2638 12.9088 14.0471 12.9088 12.5555C12.9088 11.0638 11.6921 9.84717 10.2005 9.84717C8.70884 9.84717 7.49219 11.0638 7.49219 12.5555C7.49219 14.0471 8.70884 15.2638 10.2005 15.2638Z" stroke="#E6B014" stroke-width="1.24999" stroke-linecap="round" stroke-linejoin="round"/>
</g>
</g>
</svg>
