<svg width="40" height="40" viewBox="0 0 40 40" fill="none" xmlns="http://www.w3.org/2000/svg">
<path d="M28.6523 6.44237L28.6522 6.4424L28.6562 6.45016C29.2998 7.69138 30.5883 8.5 32.0001 8.5C36.0526 8.5 39.2624 11.9173 39.0011 15.9477L39.0011 15.9486L37.9611 32.4685C37.8357 34.4552 37.2459 36.2047 36.0775 37.4534C34.9187 38.6918 33.1325 39.5 30.4801 39.5H9.52009C6.86743 39.5 5.07612 38.6917 3.91486 37.453C2.7444 36.2045 2.15487 34.4557 2.03925 32.4709L2.0391 32.4686L0.999104 15.9486L0.999044 15.9477C0.737814 11.9173 3.94762 8.5 8.00009 8.5C9.41191 8.5 10.7004 7.69138 11.344 6.45016L11.344 6.45019L11.3479 6.44237L12.7863 3.54557C12.7866 3.54508 12.7868 3.54459 12.7871 3.5441C13.1967 2.73453 13.9532 1.96803 14.8659 1.40254C15.7792 0.836718 16.804 0.5 17.7201 0.5H22.3001C23.2053 0.5 24.225 0.836189 25.1363 1.40224C26.0468 1.96778 26.8033 2.73433 27.213 3.54391C27.2133 3.54446 27.2136 3.54501 27.2139 3.54557L28.6523 6.44237ZM23.0001 10H17.0001C15.9039 10 15.0001 10.9039 15.0001 12C15.0001 13.0961 15.9039 14 17.0001 14H23.0001C24.0962 14 25.0001 13.0961 25.0001 12C25.0001 10.9039 24.0962 10 23.0001 10ZM12.7401 25.48C12.7401 29.4971 16.0049 32.74 20.0001 32.74C23.9953 32.74 27.2601 29.4971 27.2601 25.48C27.2601 21.4639 24.0162 18.22 20.0001 18.22C15.9839 18.22 12.7401 21.4639 12.7401 25.48Z" fill="#1A1C1E" stroke="#1A1C1E"/>
</svg>
