<svg width="17" height="17" viewBox="0 0 17 17" fill="none" xmlns="http://www.w3.org/2000/svg">
<g id="vuesax/linear/edit">
<g id="edit">
<path id="Vector" d="M7.92287 1.48145H6.58953C3.25619 1.48145 1.92285 2.81478 1.92285 6.14812V10.1481C1.92285 13.4815 3.25619 14.8148 6.58953 14.8148H10.5895C13.9229 14.8148 15.2562 13.4815 15.2562 10.1481V8.8148" stroke="#F5F5F5" stroke-linecap="round" stroke-linejoin="round"/>
<path id="Vector_2" d="M11.2831 2.16145L6.02976 7.4148C5.82976 7.6148 5.62976 8.00813 5.58976 8.2948L5.3031 10.3015C5.19643 11.0281 5.70976 11.5348 6.43643 11.4348L8.4431 11.1481C8.7231 11.1081 9.11644 10.9081 9.32311 10.7081L14.5765 5.45479C15.4831 4.54813 15.9098 3.49479 14.5765 2.16145C13.2431 0.828117 12.1898 1.25478 11.2831 2.16145Z" stroke="#F5F5F5" stroke-miterlimit="10" stroke-linecap="round" stroke-linejoin="round"/>
<path id="Vector_3" d="M10.5303 2.91455C10.9769 4.50789 12.2236 5.75456 13.8236 6.20789" stroke="#F5F5F5" stroke-miterlimit="10" stroke-linecap="round" stroke-linejoin="round"/>
</g>
</g>
</svg>
