<svg width="20" height="20" viewBox="0 0 20 20" fill="none" xmlns="http://www.w3.org/2000/svg">
<g id="vuesax/linear/eye-slash">
<g id="eye-slash">
<path id="Vector" d="M12.1083 7.8916L7.8916 12.1083C7.34994 11.5666 7.0166 10.8249 7.0166 9.99993C7.0166 8.34993 8.34993 7.0166 9.99993 7.0166C10.8249 7.0166 11.5666 7.34994 12.1083 7.8916Z" stroke="#767676" stroke-width="1.25" stroke-linecap="round" stroke-linejoin="round"/>
<path id="Vector_2" d="M14.8499 4.8084C13.3915 3.7084 11.7249 3.1084 9.99987 3.1084C7.0582 3.1084 4.31654 4.84173 2.4082 7.84173C1.6582 9.01673 1.6582 10.9917 2.4082 12.1667C3.06654 13.2001 3.8332 14.0917 4.66654 14.8084" stroke="#767676" stroke-width="1.25" stroke-linecap="round" stroke-linejoin="round"/>
<path id="Vector_3" d="M7.0166 16.2751C7.9666 16.6751 8.97493 16.8917 9.99993 16.8917C12.9416 16.8917 15.6833 15.1584 17.5916 12.1584C18.3416 10.9834 18.3416 9.0084 17.5916 7.8334C17.3166 7.40006 17.0166 6.99173 16.7083 6.6084" stroke="#767676" stroke-width="1.25" stroke-linecap="round" stroke-linejoin="round"/>
<path id="Vector_4" d="M12.9253 10.5833C12.7087 11.7583 11.7503 12.7166 10.5753 12.9333" stroke="#767676" stroke-width="1.25" stroke-linecap="round" stroke-linejoin="round"/>
<path id="Vector_5" d="M7.89163 12.1084L1.66663 18.3334" stroke="#767676" stroke-width="1.25" stroke-linecap="round" stroke-linejoin="round"/>
<path id="Vector_6" d="M18.3335 1.66675L12.1085 7.89175" stroke="#767676" stroke-width="1.25" stroke-linecap="round" stroke-linejoin="round"/>
</g>
</g>
</svg>
