<svg width="21" height="21" viewBox="0 0 21 21" fill="none" xmlns="http://www.w3.org/2000/svg">
<g id="vuesax/linear/gallery-import">
<g id="gallery-import">
<path id="Vector" d="M7.69985 8.95732C8.62031 8.95732 9.3665 8.21113 9.3665 7.29067C9.3665 6.37021 8.62031 5.62402 7.69985 5.62402C6.77939 5.62402 6.0332 6.37021 6.0332 7.29067C6.0332 8.21113 6.77939 8.95732 7.69985 8.95732Z" stroke="#E6B014" stroke-width="1.24999" stroke-linecap="round" stroke-linejoin="round"/>
<path id="Vector_2" d="M11.0337 2.29053H7.70045C3.53383 2.29053 1.86719 3.95717 1.86719 8.12379V13.1237C1.86719 17.2904 3.53383 18.957 7.70045 18.957H12.7004C16.867 18.957 18.5337 17.2904 18.5337 13.1237V8.95712" stroke="#E6B014" stroke-width="1.24999" stroke-linecap="round" stroke-linejoin="round"/>
<path id="Vector_3" d="M15.2002 2.29053V7.29047L16.8668 5.62382" stroke="#E6B014" stroke-width="1.24999" stroke-linecap="round" stroke-linejoin="round"/>
<path id="Vector_4" d="M15.1999 7.29067L13.5332 5.62402" stroke="#E6B014" stroke-width="1.24999" stroke-linecap="round" stroke-linejoin="round"/>
<path id="Vector_5" d="M2.4248 16.4158L6.53309 13.6575C7.19142 13.2158 8.1414 13.2658 8.73306 13.7741L9.00806 14.0158C9.65805 14.5741 10.708 14.5741 11.358 14.0158L14.8247 11.0408C15.4747 10.4825 16.5246 10.4825 17.1746 11.0408L18.533 12.2075" stroke="#E6B014" stroke-width="1.24999" stroke-linecap="round" stroke-linejoin="round"/>
</g>
</g>
</svg>
