<svg width="238" height="184" viewBox="0 0 238 184" fill="none" xmlns="http://www.w3.org/2000/svg">
<g id="192 1" opacity="0.6">
<path id="Vector" fill-rule="evenodd" clip-rule="evenodd" d="M203.731 33.622L177.069 6.93615C175.319 5.18412 173.241 3.79401 170.954 2.84522C168.666 1.89643 166.214 1.40755 163.738 1.40649H96.1206C85.7025 1.40649 77.2646 9.85189 77.2646 20.2791V152.388C77.2646 162.815 85.7025 171.26 96.1206 171.26H190.4C200.818 171.26 209.256 162.815 209.256 152.388V46.9649C209.255 41.961 207.268 37.1622 203.731 33.622Z" fill="white" stroke="#E1E4E5" stroke-width="1.58228"/>
<path id="Vector_2" d="M107.791 54.4523H165.982M107.791 80.8122H165.982M107.667 107.083H173.147" stroke="#F6BE28" stroke-width="10.7678" stroke-linecap="round" stroke-linejoin="round"/>
<path id="Vector_3" fill-rule="evenodd" clip-rule="evenodd" d="M56.6928 122.638C41.4492 124.661 29.668 137.229 29.668 152.598C29.668 169.371 43.6616 182.973 60.9179 182.973H129.668C143.474 182.973 154.668 172.092 154.668 158.673C154.668 145.254 143.474 134.374 129.668 134.374C129.668 114.242 112.88 97.9253 92.1679 97.9253C75.6865 97.9253 61.7241 108.271 56.6928 122.638Z" fill="#F6BE28"/>
<path id="Vector_4" fill-rule="evenodd" clip-rule="evenodd" d="M27.8427 95.5879H29.099C29.4028 95.5879 29.6473 95.8351 29.6473 96.1361V97.3924C29.6473 97.6959 29.4 97.9407 29.099 97.9407H27.8427C27.6975 97.9401 27.5584 97.8821 27.4557 97.7794C27.353 97.6768 27.2951 97.5377 27.2944 97.3924V96.1361C27.2943 96.0641 27.3084 95.9927 27.3358 95.9261C27.3633 95.8595 27.4037 95.799 27.4547 95.7481C27.5056 95.6971 27.5661 95.6568 27.6327 95.6293C27.6993 95.6018 27.7707 95.5877 27.8427 95.5879ZM32.1975 95.5879H33.4538C33.7549 95.5879 34.0021 95.8351 34.0021 96.1361V97.3924C34.0021 97.6959 33.7549 97.9407 33.4538 97.9407H32.1975C32.0523 97.9401 31.9132 97.8821 31.8105 97.7794C31.7078 97.6768 31.6499 97.5377 31.6493 97.3924V96.1361C31.6493 95.8351 31.8965 95.5879 32.1975 95.5879ZM36.5555 95.5879H37.8118C38.1128 95.5879 38.3601 95.8351 38.3601 96.1361V97.3924C38.3601 97.6959 38.1128 97.9407 37.8118 97.9407H36.5555C36.4103 97.9401 36.2712 97.8821 36.1685 97.7794C36.0658 97.6768 36.0079 97.5377 36.0072 97.3924V96.1361C36.0071 96.0641 36.0211 95.9927 36.0486 95.9261C36.0761 95.8595 36.1165 95.799 36.1675 95.7481C36.2184 95.6971 36.2789 95.6568 36.3455 95.6293C36.4121 95.6018 36.4835 95.5877 36.5555 95.5879ZM40.9107 95.5879H42.1666C42.4677 95.5879 42.7149 95.8351 42.7149 96.1361V97.3924C42.7149 97.6959 42.4677 97.9407 42.1666 97.9407H40.9107C40.765 97.9407 40.6253 97.883 40.522 97.7803C40.4188 97.6776 40.3604 97.5381 40.3597 97.3924V96.1361C40.3613 95.9907 40.42 95.8518 40.5231 95.7493C40.6261 95.6468 40.7653 95.5888 40.9107 95.5879ZM45.2659 95.5879H46.5218C46.8256 95.5879 47.0729 95.8351 47.0729 96.1361V97.3924C47.0725 97.5382 47.0142 97.6778 46.9109 97.7806C46.8075 97.8835 46.6676 97.941 46.5218 97.9407H45.2659C45.1207 97.9401 44.9816 97.8821 44.8789 97.7794C44.7763 97.6768 44.7183 97.5377 44.7177 97.3924V96.1361C44.7177 95.8351 44.9649 95.5879 45.2659 95.5879ZM32.3573 100.337H33.6136C33.9147 100.337 34.1619 100.584 34.1619 100.885V102.144C34.1619 102.445 33.9147 102.692 33.6136 102.692H32.3573C32.2119 102.692 32.0726 102.634 31.9698 102.531C31.867 102.428 31.8092 102.289 31.8091 102.144V100.888C31.8086 100.815 31.8225 100.744 31.8499 100.677C31.8773 100.61 31.9176 100.549 31.9685 100.498C32.0195 100.447 32.0801 100.406 32.1468 100.379C32.2135 100.351 32.2851 100.337 32.3573 100.337ZM36.7125 100.337H37.9685C38.2695 100.337 38.5167 100.584 38.5167 100.885V102.144C38.5167 102.445 38.2695 102.692 37.9685 102.692H36.7125C36.5673 102.691 36.428 102.634 36.3253 102.531C36.2226 102.428 36.1647 102.289 36.1643 102.144V100.888C36.1638 100.815 36.1776 100.744 36.205 100.677C36.2323 100.61 36.2727 100.549 36.3236 100.498C36.3746 100.447 36.4352 100.406 36.502 100.378C36.5687 100.351 36.6403 100.337 36.7125 100.337ZM41.0677 100.337H42.3241C42.6279 100.337 42.8747 100.584 42.8747 100.885V102.144C42.8747 102.445 42.6279 102.692 42.3241 102.692H41.0677C40.9225 102.691 40.7834 102.633 40.6806 102.531C40.5779 102.428 40.52 102.289 40.5195 102.144V100.888C40.5195 100.584 40.7667 100.337 41.0677 100.337ZM36.5555 90.4862H37.8118C38.1128 90.4862 38.3601 90.733 38.3601 91.0345V92.2904C38.3601 92.5942 38.1128 92.8387 37.8118 92.8387H36.5555C36.4103 92.838 36.2712 92.7801 36.1685 92.6774C36.0658 92.5747 36.0079 92.4356 36.0072 92.2904V91.0345C36.0071 90.9624 36.0211 90.8911 36.0486 90.8245C36.0761 90.7579 36.1165 90.6974 36.1675 90.6464C36.2184 90.5955 36.2789 90.5551 36.3455 90.5276C36.4121 90.5001 36.4835 90.4861 36.5555 90.4862ZM40.9107 90.4862H42.1666C42.4677 90.4862 42.7149 90.733 42.7149 91.0345V92.2904C42.7149 92.5942 42.4677 92.8387 42.1666 92.8387H40.9107C40.765 92.8387 40.6253 92.781 40.522 92.6782C40.4188 92.5755 40.3604 92.4361 40.3597 92.2904V91.0345C40.3612 90.8891 40.4199 90.7501 40.523 90.6475C40.626 90.545 40.7653 90.487 40.9107 90.4862ZM175.39 147.803H176.646C176.95 147.803 177.194 148.05 177.194 148.351V149.608C177.194 149.911 176.947 150.156 176.646 150.156H175.39C175.245 150.155 175.106 150.097 175.003 149.995C174.9 149.892 174.842 149.753 174.842 149.608V148.351C174.841 148.279 174.856 148.208 174.883 148.141C174.911 148.075 174.951 148.014 175.002 147.963C175.053 147.912 175.113 147.872 175.18 147.844C175.246 147.817 175.318 147.803 175.39 147.803ZM179.745 147.803H181.001C181.302 147.803 181.549 148.05 181.549 148.351V149.608C181.549 149.911 181.302 150.156 181.001 150.156H179.745C179.599 150.155 179.46 150.097 179.358 149.995C179.255 149.892 179.197 149.753 179.196 149.608V148.351C179.196 148.05 179.444 147.803 179.745 147.803ZM184.103 147.803H185.359C185.66 147.803 185.907 148.05 185.907 148.351V149.608C185.907 149.911 185.66 150.156 185.359 150.156H184.103C183.957 150.155 183.818 150.097 183.716 149.995C183.613 149.892 183.555 149.753 183.554 149.608V148.351C183.554 148.279 183.568 148.208 183.596 148.141C183.623 148.075 183.664 148.014 183.715 147.963C183.766 147.912 183.826 147.872 183.893 147.844C183.959 147.817 184.031 147.803 184.103 147.803ZM188.458 147.803H189.714C190.015 147.803 190.262 148.05 190.262 148.351V149.608C190.262 149.911 190.015 150.156 189.714 150.156H188.458C188.312 150.156 188.172 150.098 188.069 149.995C187.966 149.893 187.908 149.753 187.907 149.608V148.351C187.909 148.206 187.967 148.067 188.07 147.964C188.173 147.862 188.312 147.804 188.458 147.803ZM192.813 147.803H194.069C194.373 147.803 194.62 148.05 194.62 148.351V149.608C194.62 149.753 194.561 149.893 194.458 149.996C194.355 150.099 194.215 150.156 194.069 150.156H192.813C192.668 150.155 192.529 150.097 192.426 149.995C192.323 149.892 192.265 149.753 192.265 149.608V148.351C192.265 148.05 192.512 147.803 192.813 147.803ZM179.905 152.552H181.161C181.462 152.552 181.709 152.799 181.709 153.1V154.359C181.709 154.66 181.462 154.907 181.161 154.907H179.905C179.759 154.907 179.62 154.849 179.517 154.746C179.414 154.643 179.356 154.504 179.356 154.359V153.103C179.356 153.031 179.37 152.959 179.397 152.892C179.424 152.825 179.465 152.764 179.516 152.713C179.567 152.662 179.627 152.621 179.694 152.594C179.761 152.566 179.832 152.552 179.905 152.552ZM184.26 152.552H185.516C185.817 152.552 186.064 152.799 186.064 153.1V154.359C186.064 154.66 185.817 154.907 185.516 154.907H184.26C184.114 154.907 183.975 154.849 183.873 154.746C183.77 154.643 183.712 154.504 183.711 154.359V153.103C183.711 153.031 183.725 152.959 183.752 152.892C183.78 152.825 183.82 152.764 183.871 152.713C183.922 152.662 183.982 152.621 184.049 152.594C184.116 152.566 184.187 152.552 184.26 152.552ZM188.615 152.552H189.871C190.175 152.552 190.422 152.799 190.422 153.1V154.359C190.422 154.66 190.175 154.907 189.871 154.907H188.615C188.47 154.906 188.331 154.849 188.228 154.746C188.125 154.643 188.067 154.504 188.067 154.359V153.103C188.067 152.799 188.314 152.552 188.615 152.552ZM184.103 142.701H185.359C185.66 142.701 185.907 142.948 185.907 143.25V144.505C185.907 144.809 185.66 145.054 185.359 145.054H184.103C183.957 145.053 183.818 144.995 183.716 144.892C183.613 144.79 183.555 144.651 183.554 144.505V143.25C183.554 143.178 183.568 143.106 183.596 143.04C183.623 142.973 183.664 142.912 183.715 142.862C183.766 142.811 183.826 142.77 183.893 142.743C183.959 142.715 184.031 142.701 184.103 142.701ZM188.458 142.701H189.714C190.015 142.701 190.262 142.948 190.262 143.25V144.505C190.262 144.809 190.015 145.054 189.714 145.054H188.458C188.312 145.054 188.172 144.996 188.069 144.893C187.966 144.791 187.908 144.651 187.907 144.505V143.25C187.908 143.104 187.967 142.965 188.07 142.863C188.173 142.76 188.312 142.702 188.458 142.701Z" fill="#E1E4E5"/>
<path id="Vector_5" d="M207.809 9.70074C213.406 8.37479 219.324 13.1208 219.324 13.1208C219.324 13.1208 216.166 20.014 210.568 21.3356C204.972 22.6612 199.055 17.9195 199.055 17.9195C199.055 17.9195 202.213 11.0263 207.809 9.70074Z" fill="url(#paint0_linear_3500_1758)"/>
<path id="Vector_6" d="M17.6882 73.6476C20.2478 73.6476 22.3227 71.5727 22.3227 69.0131C22.3227 66.4536 20.2478 64.3787 17.6882 64.3787C15.1286 64.3787 13.0537 66.4536 13.0537 69.0131C13.0537 71.5727 15.1286 73.6476 17.6882 73.6476Z" fill="#F6BE28"/>
<path id="Vector_7" d="M224.603 80.9921C226.525 80.9921 228.083 82.5501 228.083 84.472C228.083 86.3938 226.525 87.9518 224.603 87.9518C222.682 87.9518 221.124 86.3938 221.124 84.472C221.124 82.5501 222.682 80.9921 224.603 80.9921Z" fill="#F6BE28"/>
<path id="Vector_8" d="M7.43469 159.711C11.1036 159.711 14.0779 162.685 14.0779 166.354C14.0779 170.023 11.1036 172.997 7.43469 172.997C3.76576 172.997 0.791504 170.023 0.791504 166.354C0.791504 162.685 3.76576 159.711 7.43469 159.711Z" fill="#F6BE28"/>
<path id="Vector_9" d="M231.951 128.46C233.999 128.46 235.659 130.12 235.659 132.168C235.659 134.216 233.999 135.876 231.951 135.876C229.904 135.876 228.244 134.216 228.244 132.168C228.244 130.12 229.904 128.46 231.951 128.46Z" fill="#E1E4E5"/>
<path id="Vector_10" d="M118.274 18.8882C120.021 18.8882 121.437 20.3045 121.437 22.0516C121.437 23.7987 120.021 25.215 118.274 25.215C116.527 25.215 115.11 23.7987 115.11 22.0516C115.11 20.3045 116.527 18.8882 118.274 18.8882Z" fill="#E1E4E5"/>
<path id="Vector_11" d="M188.695 89.5346C188.253 87.8854 189.232 86.1903 190.881 85.7484C192.53 85.3066 194.225 86.2852 194.667 87.9344C195.109 89.5835 194.13 91.2786 192.481 91.7205C190.832 92.1624 189.137 91.1837 188.695 89.5346Z" fill="#E1E4E5"/>
<path id="Vector_12" d="M232.356 156.942C234.627 156.942 236.468 158.783 236.468 161.054C236.468 163.325 234.627 165.166 232.356 165.166C230.085 165.166 228.244 163.325 228.244 161.054C228.244 158.783 230.085 156.942 232.356 156.942Z" fill="#E1E4E5"/>
<path id="Vector_13" d="M54.1917 22.8439C55.9388 22.8439 57.355 23.977 57.355 25.3748C57.355 26.7725 55.9388 27.9056 54.1917 27.9056C52.4446 27.9056 51.0283 26.7725 51.0283 25.3748C51.0283 23.977 52.4446 22.8439 54.1917 22.8439Z" fill="#E1E4E5"/>
<path id="Vector_14" d="M45.5732 59.6825C44.6536 56.2504 46.6904 52.7226 50.1224 51.803C53.5545 50.8834 57.0823 52.9201 58.0019 56.3522C58.9215 59.7843 56.8847 63.312 53.4527 64.2316C50.0206 65.1513 46.4929 63.1145 45.5732 59.6825Z" fill="#E1E4E5"/>
<path id="Vector_15" d="M18.7902 126.636H18.7076C18.2175 119.692 13.0537 119.585 13.0537 119.585C13.0537 119.585 18.7479 119.474 18.7479 111.451C18.7479 119.474 24.4417 119.585 24.4417 119.585C24.4417 119.585 19.2804 119.692 18.7902 126.636ZM95.1449 46.419H95.0848C94.7292 41.2462 90.9808 41.1667 90.9808 41.1667C90.9808 41.1667 95.1141 41.0836 95.1141 35.1066C95.1141 41.0836 99.2474 41.1667 99.2474 41.1667C99.2474 41.1667 95.5005 41.2462 95.1449 46.419Z" fill="#E1E4E5"/>
<path id="Line 1" d="M77.6934 134.054L104.065 160.425" stroke="white" stroke-width="5.49401" stroke-linecap="round"/>
<path id="Line 2" d="M77.6934 160.425L104.065 134.054" stroke="white" stroke-width="5.49401" stroke-linecap="round"/>
</g>
<defs>
<linearGradient id="paint0_linear_3500_1758" x1="228.883" y1="6.40446" x2="179.894" y2="29.5484" gradientUnits="userSpaceOnUse">
<stop stop-color="white"/>
<stop offset="1" stop-color="#EEEEEE"/>
</linearGradient>
</defs>
</svg>
