<svg width="267" height="228" viewBox="0 0 267 228" fill="none" xmlns="http://www.w3.org/2000/svg">
<g opacity="0.6" clip-path="url(#clip0_3495_21943)">
<path d="M266.599 142.394C268.377 175.166 204.306 241.803 125.333 217.139C88.6035 205.667 91.7146 186.625 63.7857 161.529C47.1386 146.572 23.2197 135.262 16.5671 113.521C10.8198 94.7551 14.3443 74.5846 24.3075 61.4645C46.7153 31.9591 91.9522 11.755 136.525 58.2434C181.097 104.732 262.002 57.8728 266.599 142.394Z" fill="url(#paint0_linear_3495_21943)"/>
<path d="M249.039 70.1546C242.808 81.2769 229.159 82.8051 207.292 80.6918C190.847 79.0993 175.85 77.8669 159.404 68.9001C147.893 62.6281 138.78 54.1428 132.13 45.9017C124.923 36.9735 114.864 26.7838 119.795 16.6609C126.572 2.75491 165.762 -8.95647 203.816 10.196C245.619 31.2414 255.136 59.2839 249.039 70.1546Z" fill="url(#paint1_linear_3495_21943)"/>
<path d="M90.4193 206.183C75.9006 185.871 61.0314 164.283 41.565 153.651C21.4855 142.678 17.7827 149.44 16.3926 160.192C15.0025 170.944 21.1977 196.418 48.6004 210.911C76.0101 225.41 104.004 225.192 90.4193 206.183Z" fill="url(#paint2_linear_3495_21943)"/>
<path d="M215.491 6.02698H66.7779C61.2308 6.02698 56.7339 10.5239 56.7339 16.0711V60.7176C56.7339 66.2648 61.2308 70.7617 66.7779 70.7617H215.491C221.038 70.7617 225.535 66.2648 225.535 60.7176V16.0711C225.535 10.5239 221.038 6.02698 215.491 6.02698Z" fill="white" stroke="#E1E4E5" stroke-width="2.00881"/>
<path d="M204.373 25.9064H109.068C106.969 25.9064 105.267 27.608 105.267 29.707C105.267 31.8061 106.969 33.5077 109.068 33.5077H204.373C206.472 33.5077 208.174 31.8061 208.174 29.707C208.174 27.608 206.472 25.9064 204.373 25.9064Z" fill="#E1E4E5"/>
<path d="M168.122 42.8635H109.068C106.969 42.8635 105.267 44.5651 105.267 46.6641C105.267 48.7632 106.969 50.4648 109.068 50.4648H168.122C170.221 50.4648 171.922 48.7632 171.922 46.6641C171.922 44.5651 170.221 42.8635 168.122 42.8635Z" fill="#E1E4E5"/>
<path fill-rule="evenodd" clip-rule="evenodd" d="M83.4833 54.7114C74.5361 54.7114 67.2817 47.3551 67.2817 38.2813C67.2817 29.208 74.5361 21.8513 83.4833 21.8513C92.4311 21.8513 99.6854 29.208 99.6854 38.2813C99.6854 47.3551 92.4311 54.7114 83.4833 54.7114Z" fill="#F6BE28"/>
<path d="M215.491 84.0162H66.7779C61.2308 84.0162 56.7339 88.5131 56.7339 94.0603V138.707C56.7339 144.254 61.2308 148.751 66.7779 148.751H215.491C221.038 148.751 225.535 144.254 225.535 138.707V94.0603C225.535 88.5131 221.038 84.0162 215.491 84.0162Z" fill="white" stroke="#E1E4E5" stroke-width="2.00881"/>
<path d="M204.373 103.896H109.068C106.969 103.896 105.267 105.597 105.267 107.696C105.267 109.795 106.969 111.497 109.068 111.497H204.373C206.472 111.497 208.174 109.795 208.174 107.696C208.174 105.597 206.472 103.896 204.373 103.896Z" fill="#E1E4E5"/>
<path d="M168.122 120.853H109.068C106.969 120.853 105.267 122.555 105.267 124.654C105.267 126.753 106.969 128.454 109.068 128.454H168.122C170.221 128.454 171.922 126.753 171.922 124.654C171.922 122.555 170.221 120.853 168.122 120.853Z" fill="#E1E4E5"/>
<path fill-rule="evenodd" clip-rule="evenodd" d="M83.4833 132.702C74.5361 132.702 67.2817 125.345 67.2817 116.272C67.2817 107.198 74.5361 99.842 83.4833 99.842C92.4311 99.842 99.6854 107.198 99.6854 116.272C99.6854 125.345 92.4311 132.702 83.4833 132.702Z" fill="#F6BE28"/>
<path d="M215.491 162.007H66.7779C61.2308 162.007 56.7339 166.504 56.7339 172.051V216.697C56.7339 222.245 61.2308 226.742 66.7779 226.742H215.491C221.038 226.742 225.535 222.245 225.535 216.697V172.051C225.535 166.504 221.038 162.007 215.491 162.007Z" fill="white" stroke="#E1E4E5" stroke-width="2.00881"/>
<path d="M204.373 181.886H109.068C106.969 181.886 105.267 183.588 105.267 185.687C105.267 187.786 106.969 189.487 109.068 189.487H204.373C206.472 189.487 208.174 187.786 208.174 185.687C208.174 183.588 206.472 181.886 204.373 181.886Z" fill="#E1E4E5"/>
<path d="M168.122 198.843H109.068C106.969 198.843 105.267 200.544 105.267 202.643C105.267 204.742 106.969 206.444 109.068 206.444H168.122C170.221 206.444 171.922 204.742 171.922 202.643C171.922 200.544 170.221 198.843 168.122 198.843Z" fill="#E1E4E5"/>
<path fill-rule="evenodd" clip-rule="evenodd" d="M83.4833 210.692C74.5361 210.692 67.2817 203.335 67.2817 194.262C67.2817 185.189 74.5361 177.832 83.4833 177.832C92.4311 177.832 99.6854 185.189 99.6854 194.262C99.6854 203.335 92.4311 210.692 83.4833 210.692Z" fill="#F6BE28"/>
<path d="M238.412 54.8517C238.163 55.7822 238.715 56.7385 239.645 56.9878C240.576 57.2372 241.532 56.685 241.781 55.7546C242.031 54.8241 241.479 53.8677 240.548 53.6184C239.618 53.3691 238.661 53.9213 238.412 54.8517Z" fill="#E1E4E5"/>
<path d="M248.493 88.4046C249.968 88.4046 251.164 87.2089 251.164 85.7339C251.164 84.2589 249.968 83.0632 248.493 83.0632C247.018 83.0632 245.823 84.2589 245.823 85.7339C245.823 87.2089 247.018 88.4046 248.493 88.4046Z" fill="#F6BE28"/>
<path d="M36.8426 173.358C34.6298 173.358 32.836 175.152 32.836 177.364C32.836 179.577 34.6298 181.371 36.8426 181.371C39.0553 181.371 40.8491 179.577 40.8491 177.364C40.8491 175.152 39.0553 173.358 36.8426 173.358Z" fill="#F6BE28"/>
<path d="M27.5842 92.2275C26.0324 92.2275 24.7744 90.9695 24.7744 89.4177C24.7744 87.8659 26.0324 86.6079 27.5842 86.6079C29.136 86.6079 30.394 87.8659 30.394 89.4177C30.394 90.9695 29.136 92.2275 27.5842 92.2275Z" fill="#F6BE28"/>
<path d="M5.33052 142.374C2.52781 142.374 0.255764 140.102 0.255764 137.299C0.255764 134.497 2.52781 132.225 5.33052 132.225C8.13323 132.225 10.4053 134.497 10.4053 137.299C10.4053 140.102 8.13323 142.374 5.33052 142.374Z" fill="#E1E4E5"/>
<path d="M253.722 178.163C250.919 178.163 248.647 175.891 248.647 173.089C248.647 170.286 250.919 168.014 253.722 168.014C256.525 168.014 258.797 170.286 258.797 173.089C258.797 175.891 256.525 178.163 253.722 178.163Z" fill="#E1E4E5"/>
<path d="M38.8234 117.626C39.1802 118.958 38.3899 120.326 37.0581 120.683C35.7264 121.04 34.3575 120.25 34.0006 118.918C33.6438 117.586 34.4341 116.217 35.7659 115.86C37.0977 115.504 38.4665 116.294 38.8234 117.626Z" fill="#E1E4E5"/>
<path d="M239.692 121.814C240.048 123.146 239.258 124.515 237.926 124.872C236.595 125.229 235.226 124.438 234.869 123.107C234.512 121.775 235.302 120.406 236.634 120.049C237.966 119.692 239.335 120.483 239.692 121.814Z" fill="#E1E4E5"/>
<path d="M39.3401 65.1494C37.5059 65.1494 36.019 63.6625 36.019 61.8283C36.019 59.9942 37.5059 58.5073 39.3401 58.5073C41.1742 58.5073 42.6611 59.9942 42.6611 61.8283C42.6611 63.6625 41.1742 65.1494 39.3401 65.1494Z" fill="#E1E4E5"/>
<path d="M82.2927 40.7938V40.2071C82.2927 39.7477 82.3457 39.3473 82.4517 39.0058C82.5577 38.6644 82.7354 38.3447 82.9849 38.0467C83.2343 37.7425 83.5711 37.4258 83.9951 37.0968C84.4317 36.7554 84.7778 36.4605 85.0334 36.2121C85.2954 35.9638 85.4824 35.7155 85.5947 35.4671C85.7132 35.2126 85.7724 34.9177 85.7724 34.5825C85.7724 34.0548 85.5916 33.6543 85.2299 33.3812C84.8744 33.1018 84.3724 32.9621 83.7239 32.9621C83.1501 32.9621 82.6107 33.0428 82.1056 33.2042C81.6005 33.3657 81.1016 33.5674 80.6089 33.8095L79.8325 32.1706C80.4 31.8602 81.0143 31.6118 81.6753 31.4256C82.3426 31.2331 83.0753 31.1369 83.8735 31.1369C85.1457 31.1369 86.1279 31.4442 86.8201 32.0588C87.5185 32.6734 87.8678 33.4836 87.8678 34.4894C87.8678 35.0419 87.7805 35.5168 87.6058 35.9141C87.4312 36.3053 87.1724 36.6684 86.8294 37.0037C86.4927 37.3327 86.0842 37.6804 85.6041 38.0467C85.2112 38.3571 84.9087 38.6271 84.6967 38.8568C84.4909 39.0803 84.3475 39.3069 84.2664 39.5366C84.1916 39.7664 84.1542 40.0426 84.1542 40.3654V40.7938H82.2927ZM81.9372 43.7924C81.9372 43.2833 82.0682 42.9263 82.3301 42.7215C82.5982 42.5104 82.9256 42.4049 83.3123 42.4049C83.6864 42.4049 84.0076 42.5104 84.2758 42.7215C84.5439 42.9263 84.678 43.2833 84.678 43.7924C84.678 44.2891 84.5439 44.6491 84.2758 44.8726C84.0076 45.0899 83.6864 45.1986 83.3123 45.1986C82.9256 45.1986 82.5982 45.0899 82.3301 44.8726C82.0682 44.6491 81.9372 44.2891 81.9372 43.7924Z" fill="white"/>
<path d="M82.2927 120.141V119.555C82.2927 119.095 82.3457 118.695 82.4517 118.353C82.5577 118.012 82.7354 117.692 82.9849 117.394C83.2343 117.09 83.5711 116.773 83.9951 116.444C84.4317 116.103 84.7778 115.808 85.0334 115.56C85.2954 115.311 85.4824 115.063 85.5947 114.815C85.7132 114.56 85.7724 114.265 85.7724 113.93C85.7724 113.402 85.5916 113.002 85.2299 112.729C84.8744 112.449 84.3724 112.31 83.7239 112.31C83.1501 112.31 82.6107 112.39 82.1056 112.552C81.6005 112.713 81.1016 112.915 80.6089 113.157L79.8325 111.518C80.4 111.208 81.0143 110.959 81.6753 110.773C82.3426 110.581 83.0753 110.484 83.8735 110.484C85.1457 110.484 86.1279 110.792 86.8201 111.406C87.5185 112.021 87.8678 112.831 87.8678 113.837C87.8678 114.389 87.7805 114.864 87.6058 115.262C87.4312 115.653 87.1724 116.016 86.8294 116.351C86.4927 116.68 86.0842 117.028 85.6041 117.394C85.2112 117.705 84.9087 117.975 84.6967 118.204C84.4909 118.428 84.3475 118.655 84.2664 118.884C84.1916 119.114 84.1542 119.39 84.1542 119.713V120.141H82.2927ZM81.9372 123.14C81.9372 122.631 82.0682 122.274 82.3301 122.069C82.5982 121.858 82.9256 121.752 83.3123 121.752C83.6864 121.752 84.0076 121.858 84.2758 122.069C84.5439 122.274 84.678 122.631 84.678 123.14C84.678 123.637 84.5439 123.997 84.2758 124.22C84.0076 124.438 83.6864 124.546 83.3123 124.546C82.9256 124.546 82.5982 124.438 82.3301 124.22C82.0682 123.997 81.9372 123.637 81.9372 123.14Z" fill="white"/>
<path d="M82.2927 195.472V194.886C82.2927 194.426 82.3457 194.026 82.4517 193.684C82.5577 193.343 82.7354 193.023 82.9849 192.725C83.2343 192.421 83.5711 192.104 83.9951 191.775C84.4317 191.434 84.7778 191.139 85.0334 190.891C85.2954 190.642 85.4824 190.394 85.5947 190.146C85.7132 189.891 85.7724 189.596 85.7724 189.261C85.7724 188.733 85.5916 188.333 85.2299 188.06C84.8744 187.78 84.3724 187.641 83.7239 187.641C83.1501 187.641 82.6107 187.721 82.1056 187.883C81.6005 188.044 81.1016 188.246 80.6089 188.488L79.8325 186.849C80.4 186.539 81.0143 186.29 81.6753 186.104C82.3426 185.912 83.0753 185.815 83.8735 185.815C85.1457 185.815 86.1279 186.123 86.8201 186.737C87.5185 187.352 87.8678 188.162 87.8678 189.168C87.8678 189.72 87.7805 190.195 87.6058 190.593C87.4312 190.984 87.1724 191.347 86.8294 191.682C86.4927 192.011 86.0842 192.359 85.6041 192.725C85.2112 193.035 84.9087 193.306 84.6967 193.535C84.4909 193.759 84.3475 193.985 84.2664 194.215C84.1916 194.445 84.1542 194.721 84.1542 195.044V195.472H82.2927ZM81.9372 198.471C81.9372 197.962 82.0682 197.605 82.3301 197.4C82.5982 197.189 82.9256 197.083 83.3123 197.083C83.6864 197.083 84.0076 197.189 84.2758 197.4C84.5439 197.605 84.678 197.962 84.678 198.471C84.678 198.967 84.5439 199.328 84.2758 199.551C84.0076 199.768 83.6864 199.877 83.3123 199.877C82.9256 199.877 82.5982 199.768 82.3301 199.551C82.0682 199.328 81.9372 198.967 81.9372 198.471Z" fill="white"/>
</g>
<defs>
<linearGradient id="paint0_linear_3495_21943" x1="190.02" y1="338.835" x2="70.1701" y2="-201.886" gradientUnits="userSpaceOnUse">
<stop stop-color="white"/>
<stop offset="1" stop-color="#EEEEEE"/>
</linearGradient>
<linearGradient id="paint1_linear_3495_21943" x1="207.056" y1="142.238" x2="151.508" y2="-107.371" gradientUnits="userSpaceOnUse">
<stop stop-color="white"/>
<stop offset="1" stop-color="#EEEEEE"/>
</linearGradient>
<linearGradient id="paint2_linear_3495_21943" x1="74.2077" y1="272.861" x2="26.5729" y2="52.5746" gradientUnits="userSpaceOnUse">
<stop stop-color="white"/>
<stop offset="1" stop-color="#EEEEEE"/>
</linearGradient>
<clipPath id="clip0_3495_21943">
<rect width="266.67" height="228" fill="white"/>
</clipPath>
</defs>
</svg>
